<?xml version="1.0" encoding="UTF-8" standalone="no"?>
<!DOCTYPE svg PUBLIC "-//W3C//DTD SVG 1.1//EN" "http://www.w3.org/Graphics/SVG/1.1/DTD/svg11.dtd">
<svg width="100%" height="100%" viewBox="0 0 800 332" version="1.1" xmlns="http://www.w3.org/2000/svg" xmlns:xlink="http://www.w3.org/1999/xlink" xml:space="preserve" xmlns:serif="http://www.serif.com/" style="fill-rule:evenodd;clip-rule:evenodd;stroke-linejoin:round;stroke-miterlimit:2;">
    <g transform="matrix(1,0,0,1,-888.389,0)">
        <g id="Artboard2" transform="matrix(1,0,0,0.721739,888.389,0)">
            <rect x="0" y="0" width="800" height="460" style="fill:none;"/>
            <g transform="matrix(1.07036,0,0,1.48303,-979.044,-26.9125)">
                <path d="M1141.17,71.069C1141.12,77.959 1140.96,215.608 1141.17,216.98C1152.77,309.332 1254.24,294.876 1260.5,218.094C1260.52,196.837 1261.4,79.31 1260.5,72.176C1256.59,64.273 1233.47,64.368 1225.93,71.069C1224.86,103.289 1227.94,174.553 1224.82,216.98C1221.08,251.085 1184.84,261.062 1176.86,215.865C1176.08,206.557 1175.97,75.263 1175.74,71.069C1172.79,65.874 1147.42,62.976 1141.17,71.069ZM1304,75.52C1303.4,155.49 1303.11,268.755 1304,274.896C1307.44,279.475 1328.38,286.169 1338.57,273.788C1338.44,270.282 1338.28,189.028 1338.57,172.425C1345.13,189.852 1375.07,274.43 1375.38,274.896C1382.82,281.745 1400.68,282.448 1406.61,274.896C1417.51,250.254 1432.31,198.85 1443.41,174.654C1443.99,200.336 1443.21,271.761 1443.41,274.896C1451.95,283.488 1471.94,280.806 1477.98,276.01C1477.61,208.077 1478.35,143.46 1477.98,75.52C1477.49,71.332 1460.89,57.87 1444.52,71.069C1425.94,118.582 1409.58,162.779 1390.99,210.299L1389.88,210.299C1356.86,123.608 1338.98,76.013 1337.46,71.069C1327.11,61.605 1308.43,66.003 1304,75.52ZM1055.29,245.938C1055.29,185.597 1055.47,142.879 1055.55,114.664C1055.62,88.415 1055.61,74.716 1055.29,71.069C1045.69,68.441 1031.36,68.171 1020.72,71.069C1020.8,78.621 1020.47,272.64 1020.72,274.896C1021.2,279.097 1024.52,279.313 1025.18,280.468C1025.38,280.779 1100.69,280.685 1101.02,280.468C1105.41,272.498 1105.82,253.584 1101.02,245.938L1055.29,245.938ZM1521.48,69.954C1521.68,77.31 1519.63,268.776 1522.59,277.125C1532.18,281.637 1546.99,281.448 1556.05,276.01C1556.15,265.858 1556.22,78.08 1556.05,71.069C1547.65,64.341 1530.8,64.104 1521.48,69.954Z" style="fill:rgb(8,6,5);"/>
            </g>
        </g>
    </g>
</svg>
